<svg xmlns="http://www.w3.org/2000/svg" xmlns:xlink="http://www.w3.org/1999/xlink" width="860" height="410" overflow="hidden" viewBox="93.5 80 860 410"><defs><filter id="fx0" width="120%" height="120%" x="-10%" y="-10%" filterUnits="userSpaceOnUse" primitiveUnits="userSpaceOnUse"><feComponentTransfer color-interpolation-filters="sRGB"><feFuncR tableValues="0 0" type="discrete"/><feFuncG tableValues="0.705882 0.705882" type="discrete"/><feFuncB tableValues="0.764706 0.764706" type="discrete"/><feFuncA intercept="0" slope=".4" type="linear"/></feComponentTransfer><feGaussianBlur stdDeviation="8 8.064"/></filter><clipPath id="clip1"><rect width="1047" height="570" x="119" y="75"/></clipPath><clipPath id="clip2"><rect width="276" height="78.12" x="-7.5" y="-7.56"/></clipPath><clipPath id="clip3"><rect width="262" height="63" x="0" y="0"/></clipPath><linearGradient id="fill4" x1="972.374" x2="307.626" y1="551.896" y2="168.104" gradientUnits="userSpaceOnUse" spreadMethod="reflect"><stop offset="0" stop-color="#00545B"/><stop offset=".01" stop-color="#00555C"/><stop offset=".019" stop-color="#00575E"/><stop offset=".029" stop-color="#005960"/><stop offset=".039" stop-color="#005A62"/><stop offset=".049" stop-color="#005C64"/><stop offset=".058" stop-color="#005E66"/><stop offset=".068" stop-color="#005F67"/><stop offset=".078" stop-color="#006169"/><stop offset=".087" stop-color="#00636B"/><stop offset=".097" stop-color="#00646D"/><stop offset=".107" stop-color="#00666E"/><stop offset=".117" stop-color="#006770"/><stop offset=".126" stop-color="#006972"/><stop offset=".136" stop-color="#006B73"/><stop offset=".146" stop-color="#006C75"/><stop offset=".155" stop-color="#006E77"/><stop offset=".165" stop-color="#006F78"/><stop offset=".175" stop-color="#00717A"/><stop offset=".184" stop-color="#00727C"/><stop offset=".194" stop-color="#00737D"/><stop offset=".204" stop-color="#00757F"/><stop offset=".214" stop-color="#007680"/><stop offset=".223" stop-color="#007882"/><stop offset=".233" stop-color="#007983"/><stop offset=".243" stop-color="#007A85"/><stop offset=".252" stop-color="#007C86"/><stop offset=".262" stop-color="#007D88"/><stop offset=".272" stop-color="#007F89"/><stop offset=".282" stop-color="#00808B"/><stop offset=".291" stop-color="#00818C"/><stop offset=".301" stop-color="#00828D"/><stop offset=".311" stop-color="#00848F"/><stop offset=".32" stop-color="#008590"/><stop offset=".33" stop-color="#008691"/><stop offset=".34" stop-color="#008793"/><stop offset=".35" stop-color="#008994"/><stop offset=".359" stop-color="#008A95"/><stop offset=".369" stop-color="#008B97"/><stop offset=".379" stop-color="#008C98"/><stop offset=".388" stop-color="#008D99"/><stop offset=".398" stop-color="#008E9A"/><stop offset=".408" stop-color="#00909C"/><stop offset=".417" stop-color="#00919D"/><stop offset=".427" stop-color="#00929E"/><stop offset=".437" stop-color="#00939F"/><stop offset=".447" stop-color="#0094A0"/><stop offset=".456" stop-color="#0095A1"/><stop offset=".466" stop-color="#0096A2"/><stop offset=".476" stop-color="#0097A4"/><stop offset=".485" stop-color="#0098A5"/><stop offset=".495" stop-color="#0099A6"/><stop offset=".505" stop-color="#009AA7"/><stop offset=".515" stop-color="#009BA8"/><stop offset=".524" stop-color="#009CA9"/><stop offset=".534" stop-color="#009DAA"/><stop offset=".544" stop-color="#009DAB"/><stop offset=".553" stop-color="#009EAC"/><stop offset=".563" stop-color="#009FAC"/><stop offset=".573" stop-color="#00A0AD"/><stop offset=".583" stop-color="#00A1AE"/><stop offset=".592" stop-color="#00A2AF"/><stop offset=".602" stop-color="#00A2B0"/><stop offset=".612" stop-color="#00A3B1"/><stop offset=".621" stop-color="#00A4B2"/><stop offset=".631" stop-color="#00A5B2"/><stop offset=".641" stop-color="#00A5B3"/><stop offset=".65" stop-color="#00A6B4"/><stop offset=".66" stop-color="#00A7B5"/><stop offset=".67" stop-color="#00A7B5"/><stop offset=".68" stop-color="#00A8B6"/><stop offset=".689" stop-color="#00A9B7"/><stop offset=".699" stop-color="#00A9B8"/><stop offset=".709" stop-color="#00AAB8"/><stop offset=".718" stop-color="#00ABB9"/><stop offset=".728" stop-color="#00ABB9"/><stop offset=".738" stop-color="#00ACBA"/><stop offset=".748" stop-color="#00ACBB"/><stop offset=".757" stop-color="#00ADBB"/><stop offset=".767" stop-color="#00ADBC"/><stop offset=".777" stop-color="#00AEBC"/><stop offset=".786" stop-color="#00AEBD"/><stop offset=".796" stop-color="#00AFBD"/><stop offset=".806" stop-color="#00AFBE"/><stop offset=".816" stop-color="#00AFBE"/><stop offset=".825" stop-color="#00B0BF"/><stop offset=".835" stop-color="#00B0BF"/><stop offset=".845" stop-color="#00B1BF"/><stop offset=".854" stop-color="#00B1C0"/><stop offset=".864" stop-color="#00B1C0"/><stop offset=".874" stop-color="#00B2C0"/><stop offset=".883" stop-color="#00B2C1"/><stop offset=".893" stop-color="#00B2C1"/><stop offset=".903" stop-color="#00B2C1"/><stop offset=".913" stop-color="#00B3C1"/><stop offset=".922" stop-color="#00B3C2"/><stop offset=".932" stop-color="#00B3C2"/><stop offset=".942" stop-color="#00B3C2"/><stop offset=".951" stop-color="#00B3C2"/><stop offset=".961" stop-color="#00B3C2"/><stop offset=".971" stop-color="#00B3C2"/><stop offset=".981" stop-color="#00B3C2"/><stop offset=".99" stop-color="#00B3C2"/><stop offset="1" stop-color="#00B4C3"/></linearGradient></defs><g clip-path="url(#clip1)" transform="translate(-119 -75)"><g clip-path="url(#clip2)" filter="url(#fx0)" transform="matrix(4 0 0 3.96825 119 238)"><g clip-path="url(#clip3)"><path fill="red" fill-rule="evenodd" d="M24.2071 27.9288 230.707 27.9288 230.707 24.4008 237.707 31.4568 230.707 38.5128 230.707 34.9848 24.2071 34.9848 27.7071 31.4568Z"/></g></g><path fill="url(#fill4)" fill-rule="evenodd" d="M213 346 1039 346 1039 332 1067 360 1039 388 1039 374 213 374 227 360Z"/><text font-family="Gill Sans MT,Gill Sans MT_MSFontService,sans-serif" font-size="43" font-weight="400" transform="translate(249.05 186)">Pre-<tspan x="-.213" y="44" font-size="43">FHE</tspan><tspan x="5.487" y="89" font-size="21">&lt; 2007</tspan></text><path fill="#00545B" fill-rule="evenodd" stroke="#FFF" stroke-miterlimit="8" stroke-width="1.333" d="M257.5 331 286 302.5 314.5 331 286 359.5Z"/><text font-family="Gill Sans MT,Gill Sans MT_MSFontService,sans-serif" font-size="21" font-weight="400" transform="translate(381.158 446)">2009 <tspan x="48.593" y="0" font-size="21">–</tspan><tspan x="65.187" y="0" font-size="21">2010</tspan><tspan x="33.047" y="49" font-size="43">1</tspan><tspan x="54.38" y="36" font-size="28">st</tspan><tspan x="23.933" y="93" font-size="43">gen</tspan></text><path fill="#00545B" fill-rule="evenodd" stroke="#FFF" stroke-miterlimit="8" stroke-width="1.333" d="M407.5 389C407.5 373.26 420.26 360.5 436 360.5 451.74 360.5 464.5 373.26 464.5 389 464.5 404.74 451.74 417.5 436 417.5 420.26 417.5 407.5 404.74 407.5 389Z"/><text font-family="Gill Sans MT,Gill Sans MT_MSFontService,sans-serif" font-size="43" font-weight="400" transform="translate(572.3 186)">2<tspan x="21.333" y="-13" font-size="28">nd</tspan><tspan x="-4.96" y="44" font-size="43">gen</tspan><tspan x="-27.007" y="89" font-size="21">2011 </tspan><tspan x="21.587" y="89" font-size="21">-</tspan><tspan x="34.407" y="89" font-size="21">2012</tspan></text><path fill="#00545B" fill-rule="evenodd" stroke="#FFF" stroke-miterlimit="8" stroke-width="1.333" d="M569.5 332C569.5 316.26 582.26 303.5 598 303.5 613.74 303.5 626.5 316.26 626.5 332 626.5 347.74 613.74 360.5 598 360.5 582.26 360.5 569.5 347.74 569.5 332Z"/><text font-family="Gill Sans MT,Gill Sans MT_MSFontService,sans-serif" font-size="21" font-weight="400" transform="translate(707.541 446)">2013 <tspan x="48.593" y="0" font-size="21">-</tspan><tspan x="61.413" y="0" font-size="21">2016</tspan><tspan x="28.707" y="49" font-size="43">3</tspan><tspan x="50.04" y="36" font-size="28">rd</tspan><tspan x="22.047" y="93" font-size="43">gen</tspan></text><path fill="#00545B" fill-rule="evenodd" stroke="#FFF" stroke-miterlimit="8" stroke-width="1.333" d="M731.5 389C731.5 373.26 744.26 360.5 760 360.5 775.74 360.5 788.5 373.26 788.5 389 788.5 404.74 775.74 417.5 760 417.5 744.26 417.5 731.5 404.74 731.5 389Z"/><text font-family="Gill Sans MT,Gill Sans MT_MSFontService,sans-serif" font-size="43" font-weight="400" transform="translate(887.087 186)">4<tspan x="21.333" y="-13" font-size="28">th</tspan><tspan x="-7.473" y="44" font-size="43">gen</tspan><tspan x="-8.013" y="89" font-size="21">2017 &gt;</tspan></text><path fill="#00545B" fill-rule="evenodd" stroke="#FFF" stroke-miterlimit="8" stroke-width="1.333" d="M881.5 332C881.5 316.26 894.26 303.5 910 303.5 925.74 303.5 938.5 316.26 938.5 332 938.5 347.74 925.74 360.5 910 360.5 894.26 360.5 881.5 347.74 881.5 332Z"/></g></svg>