<svg width="1345" height="571" xmlns="http://www.w3.org/2000/svg" xmlns:xlink="http://www.w3.org/1999/xlink" overflow="hidden"><defs><filter id="fx0" x="-10%" y="-10%" width="120%" height="120%" filterUnits="userSpaceOnUse" primitiveUnits="userSpaceOnUse"><feComponentTransfer color-interpolation-filters="sRGB"><feFuncR type="discrete" tableValues="0 0"/><feFuncG type="discrete" tableValues="0.705882 0.705882"/><feFuncB type="discrete" tableValues="0.764706 0.764706"/><feFuncA type="linear" slope="0.4" intercept="0"/></feComponentTransfer><feGaussianBlur stdDeviation="8.0218 8"/></filter><filter id="fx1" x="-10%" y="-10%" width="120%" height="120%" filterUnits="userSpaceOnUse" primitiveUnits="userSpaceOnUse"><feComponentTransfer color-interpolation-filters="sRGB"><feFuncR type="discrete" tableValues="0 0"/><feFuncG type="discrete" tableValues="0.705882 0.705882"/><feFuncB type="discrete" tableValues="0.764706 0.764706"/><feFuncA type="linear" slope="0.4" intercept="0"/></feComponentTransfer><feGaussianBlur stdDeviation="8.0218 8"/></filter><clipPath id="clip2"><rect x="-36" y="72" width="1345" height="571"/></clipPath><clipPath id="clip3"><rect x="-7.52045" y="-7.5" width="199.041" height="155"/></clipPath><clipPath id="clip4"><rect x="0" y="0" width="184" height="139"/></clipPath><linearGradient x1="1085.28" y1="599.923" x2="793.524" y2="94.5896" gradientUnits="userSpaceOnUse" spreadMethod="reflect" id="fill5"><stop offset="0" stop-color="#00545B"/><stop offset="0.00970874" stop-color="#00555C"/><stop offset="0.0194175" stop-color="#00575E"/><stop offset="0.0291262" stop-color="#005960"/><stop offset="0.038835" stop-color="#005A62"/><stop offset="0.0485437" stop-color="#005C64"/><stop offset="0.0582524" stop-color="#005E66"/><stop offset="0.0679612" stop-color="#005F67"/><stop offset="0.0776699" stop-color="#006169"/><stop offset="0.0873786" stop-color="#00636B"/><stop offset="0.0970874" stop-color="#00646D"/><stop offset="0.106796" stop-color="#00666E"/><stop offset="0.116505" stop-color="#006770"/><stop offset="0.126214" stop-color="#006972"/><stop offset="0.135922" stop-color="#006B73"/><stop offset="0.145631" stop-color="#006C75"/><stop offset="0.15534" stop-color="#006E77"/><stop offset="0.165049" stop-color="#006F78"/><stop offset="0.174757" stop-color="#00717A"/><stop offset="0.184466" stop-color="#00727C"/><stop offset="0.194175" stop-color="#00737D"/><stop offset="0.203883" stop-color="#00757F"/><stop offset="0.213592" stop-color="#007680"/><stop offset="0.223301" stop-color="#007882"/><stop offset="0.23301" stop-color="#007983"/><stop offset="0.242718" stop-color="#007A85"/><stop offset="0.252427" stop-color="#007C86"/><stop offset="0.262136" stop-color="#007D88"/><stop offset="0.271845" stop-color="#007F89"/><stop offset="0.281553" stop-color="#00808B"/><stop offset="0.291262" stop-color="#00818C"/><stop offset="0.300971" stop-color="#00828D"/><stop offset="0.31068" stop-color="#00848F"/><stop offset="0.320388" stop-color="#008590"/><stop offset="0.330097" stop-color="#008691"/><stop offset="0.339806" stop-color="#008793"/><stop offset="0.349515" stop-color="#008994"/><stop offset="0.359223" stop-color="#008A95"/><stop offset="0.368932" stop-color="#008B97"/><stop offset="0.378641" stop-color="#008C98"/><stop offset="0.38835" stop-color="#008D99"/><stop offset="0.398058" stop-color="#008E9A"/><stop offset="0.407767" stop-color="#00909C"/><stop offset="0.417476" stop-color="#00919D"/><stop offset="0.427184" stop-color="#00929E"/><stop offset="0.436893" stop-color="#00939F"/><stop offset="0.446602" stop-color="#0094A0"/><stop offset="0.456311" stop-color="#0095A1"/><stop offset="0.466019" stop-color="#0096A2"/><stop offset="0.475728" stop-color="#0097A4"/><stop offset="0.485437" stop-color="#0098A5"/><stop offset="0.495146" stop-color="#0099A6"/><stop offset="0.504854" stop-color="#009AA7"/><stop offset="0.514563" stop-color="#009BA8"/><stop offset="0.524272" stop-color="#009CA9"/><stop offset="0.533981" stop-color="#009DAA"/><stop offset="0.543689" stop-color="#009DAB"/><stop offset="0.553398" stop-color="#009EAC"/><stop offset="0.563107" stop-color="#009FAC"/><stop offset="0.572816" stop-color="#00A0AD"/><stop offset="0.582524" stop-color="#00A1AE"/><stop offset="0.592233" stop-color="#00A2AF"/><stop offset="0.601942" stop-color="#00A2B0"/><stop offset="0.61165" stop-color="#00A3B1"/><stop offset="0.621359" stop-color="#00A4B2"/><stop offset="0.631068" stop-color="#00A5B2"/><stop offset="0.640777" stop-color="#00A5B3"/><stop offset="0.650485" stop-color="#00A6B4"/><stop offset="0.660194" stop-color="#00A7B5"/><stop offset="0.669903" stop-color="#00A7B5"/><stop offset="0.679612" stop-color="#00A8B6"/><stop offset="0.68932" stop-color="#00A9B7"/><stop offset="0.699029" stop-color="#00A9B8"/><stop offset="0.708738" stop-color="#00AAB8"/><stop offset="0.718447" stop-color="#00ABB9"/><stop offset="0.728155" stop-color="#00ABB9"/><stop offset="0.737864" stop-color="#00ACBA"/><stop offset="0.747573" stop-color="#00ACBB"/><stop offset="0.757282" stop-color="#00ADBB"/><stop offset="0.76699" stop-color="#00ADBC"/><stop offset="0.776699" stop-color="#00AEBC"/><stop offset="0.786408" stop-color="#00AEBD"/><stop offset="0.796117" stop-color="#00AFBD"/><stop offset="0.805825" stop-color="#00AFBE"/><stop offset="0.815534" stop-color="#00AFBE"/><stop offset="0.825243" stop-color="#00B0BF"/><stop offset="0.834951" stop-color="#00B0BF"/><stop offset="0.84466" stop-color="#00B1BF"/><stop offset="0.854369" stop-color="#00B1C0"/><stop offset="0.864078" stop-color="#00B1C0"/><stop offset="0.873786" stop-color="#00B2C0"/><stop offset="0.883495" stop-color="#00B2C1"/><stop offset="0.893204" stop-color="#00B2C1"/><stop offset="0.902913" stop-color="#00B2C1"/><stop offset="0.912621" stop-color="#00B3C1"/><stop offset="0.92233" stop-color="#00B3C2"/><stop offset="0.932039" stop-color="#00B3C2"/><stop offset="0.941748" stop-color="#00B3C2"/><stop offset="0.951456" stop-color="#00B3C2"/><stop offset="0.961165" stop-color="#00B3C2"/><stop offset="0.970874" stop-color="#00B3C2"/><stop offset="0.980583" stop-color="#00B3C2"/><stop offset="0.990291" stop-color="#00B3C2"/><stop offset="1" stop-color="#00B4C3"/></linearGradient><clipPath id="clip6"><rect x="-7.52044" y="-7.5" width="199.041" height="155"/></clipPath><clipPath id="clip7"><rect x="0" y="0" width="184" height="139"/></clipPath><linearGradient x1="289.297" y1="139.481" x2="367.507" y2="583.031" gradientUnits="userSpaceOnUse" spreadMethod="reflect" id="fill8"><stop offset="0" stop-color="#00545B"/><stop offset="0.00970874" stop-color="#00555C"/><stop offset="0.0194175" stop-color="#00575E"/><stop offset="0.0291262" stop-color="#005960"/><stop offset="0.038835" stop-color="#005A62"/><stop offset="0.0485437" stop-color="#005C64"/><stop offset="0.0582524" stop-color="#005E66"/><stop offset="0.0679612" stop-color="#005F67"/><stop offset="0.0776699" stop-color="#006169"/><stop offset="0.0873786" stop-color="#00636B"/><stop offset="0.0970874" stop-color="#00646D"/><stop offset="0.106796" stop-color="#00666E"/><stop offset="0.116505" stop-color="#006770"/><stop offset="0.126214" stop-color="#006972"/><stop offset="0.135922" stop-color="#006B73"/><stop offset="0.145631" stop-color="#006C75"/><stop offset="0.15534" stop-color="#006E77"/><stop offset="0.165049" stop-color="#006F78"/><stop offset="0.174757" stop-color="#00717A"/><stop offset="0.184466" stop-color="#00727C"/><stop offset="0.194175" stop-color="#00737D"/><stop offset="0.203883" stop-color="#00757F"/><stop offset="0.213592" stop-color="#007680"/><stop offset="0.223301" stop-color="#007882"/><stop offset="0.23301" stop-color="#007983"/><stop offset="0.242718" stop-color="#007A85"/><stop offset="0.252427" stop-color="#007C86"/><stop offset="0.262136" stop-color="#007D88"/><stop offset="0.271845" stop-color="#007F89"/><stop offset="0.281553" stop-color="#00808B"/><stop offset="0.291262" stop-color="#00818C"/><stop offset="0.300971" stop-color="#00828D"/><stop offset="0.31068" stop-color="#00848F"/><stop offset="0.320388" stop-color="#008590"/><stop offset="0.330097" stop-color="#008691"/><stop offset="0.339806" stop-color="#008793"/><stop offset="0.349515" stop-color="#008994"/><stop offset="0.359223" stop-color="#008A95"/><stop offset="0.368932" stop-color="#008B97"/><stop offset="0.378641" stop-color="#008C98"/><stop offset="0.38835" stop-color="#008D99"/><stop offset="0.398058" stop-color="#008E9A"/><stop offset="0.407767" stop-color="#00909C"/><stop offset="0.417476" stop-color="#00919D"/><stop offset="0.427184" stop-color="#00929E"/><stop offset="0.436893" stop-color="#00939F"/><stop offset="0.446602" stop-color="#0094A0"/><stop offset="0.456311" stop-color="#0095A1"/><stop offset="0.466019" stop-color="#0096A2"/><stop offset="0.475728" stop-color="#0097A4"/><stop offset="0.485437" stop-color="#0098A5"/><stop offset="0.495146" stop-color="#0099A6"/><stop offset="0.504854" stop-color="#009AA7"/><stop offset="0.514563" stop-color="#009BA8"/><stop offset="0.524272" stop-color="#009CA9"/><stop offset="0.533981" stop-color="#009DAA"/><stop offset="0.543689" stop-color="#009DAB"/><stop offset="0.553398" stop-color="#009EAC"/><stop offset="0.563107" stop-color="#009FAC"/><stop offset="0.572816" stop-color="#00A0AD"/><stop offset="0.582524" stop-color="#00A1AE"/><stop offset="0.592233" stop-color="#00A2AF"/><stop offset="0.601942" stop-color="#00A2B0"/><stop offset="0.61165" stop-color="#00A3B1"/><stop offset="0.621359" stop-color="#00A4B2"/><stop offset="0.631068" stop-color="#00A5B2"/><stop offset="0.640777" stop-color="#00A5B3"/><stop offset="0.650485" stop-color="#00A6B4"/><stop offset="0.660194" stop-color="#00A7B5"/><stop offset="0.669903" stop-color="#00A7B5"/><stop offset="0.679612" stop-color="#00A8B6"/><stop offset="0.68932" stop-color="#00A9B7"/><stop offset="0.699029" stop-color="#00A9B8"/><stop offset="0.708738" stop-color="#00AAB8"/><stop offset="0.718447" stop-color="#00ABB9"/><stop offset="0.728155" stop-color="#00ABB9"/><stop offset="0.737864" stop-color="#00ACBA"/><stop offset="0.747573" stop-color="#00ACBB"/><stop offset="0.757282" stop-color="#00ADBB"/><stop offset="0.76699" stop-color="#00ADBC"/><stop offset="0.776699" stop-color="#00AEBC"/><stop offset="0.786408" stop-color="#00AEBD"/><stop offset="0.796117" stop-color="#00AFBD"/><stop offset="0.805825" stop-color="#00AFBE"/><stop offset="0.815534" stop-color="#00AFBE"/><stop offset="0.825243" stop-color="#00B0BF"/><stop offset="0.834951" stop-color="#00B0BF"/><stop offset="0.84466" stop-color="#00B1BF"/><stop offset="0.854369" stop-color="#00B1C0"/><stop offset="0.864078" stop-color="#00B1C0"/><stop offset="0.873786" stop-color="#00B2C0"/><stop offset="0.883495" stop-color="#00B2C1"/><stop offset="0.893204" stop-color="#00B2C1"/><stop offset="0.902913" stop-color="#00B2C1"/><stop offset="0.912621" stop-color="#00B3C1"/><stop offset="0.92233" stop-color="#00B3C2"/><stop offset="0.932039" stop-color="#00B3C2"/><stop offset="0.941748" stop-color="#00B3C2"/><stop offset="0.951456" stop-color="#00B3C2"/><stop offset="0.961165" stop-color="#00B3C2"/><stop offset="0.970874" stop-color="#00B3C2"/><stop offset="0.980583" stop-color="#00B3C2"/><stop offset="0.990291" stop-color="#00B3C2"/><stop offset="1" stop-color="#00B4C3"/></linearGradient><clipPath id="clip9"><rect x="148" y="398" width="96" height="96"/></clipPath><clipPath id="clip10"><rect x="148" y="398" width="96" height="96"/></clipPath><clipPath id="clip11"><rect x="148" y="398" width="96" height="96"/></clipPath><clipPath id="clip12"><rect x="1089" y="302" width="96" height="96"/></clipPath><clipPath id="clip13"><rect x="1089" y="302" width="96" height="96"/></clipPath><clipPath id="clip14"><rect x="1089" y="302" width="96" height="96"/></clipPath><clipPath id="clip15"><rect x="438" y="358" width="96" height="96"/></clipPath><clipPath id="clip16"><rect x="438" y="358" width="96" height="96"/></clipPath><clipPath id="clip17"><rect x="438" y="358" width="96" height="96"/></clipPath><clipPath id="clip18"><rect x="899" y="432" width="96" height="96"/></clipPath><clipPath id="clip19"><rect x="899" y="432" width="96" height="96"/></clipPath><clipPath id="clip20"><rect x="899" y="432" width="96" height="96"/></clipPath><clipPath id="clip21"><rect x="289" y="423" width="96" height="96"/></clipPath><clipPath id="clip22"><rect x="289" y="423" width="96" height="96"/></clipPath><clipPath id="clip23"><rect x="289" y="423" width="96" height="96"/></clipPath><clipPath id="clip24"><rect x="958" y="170" width="96" height="96"/></clipPath><clipPath id="clip25"><rect x="958" y="170" width="96" height="96"/></clipPath><clipPath id="clip26"><rect x="958" y="170" width="96" height="96"/></clipPath><clipPath id="clip27"><rect x="761" y="387" width="96" height="96"/></clipPath><clipPath id="clip28"><rect x="761" y="387" width="96" height="96"/></clipPath><clipPath id="clip29"><rect x="761" y="387" width="96" height="96"/></clipPath><clipPath id="clip30"><rect x="1062" y="205" width="96" height="96"/></clipPath><clipPath id="clip31"><rect x="1062" y="205" width="96" height="96"/></clipPath><clipPath id="clip32"><rect x="1062" y="205" width="96" height="96"/></clipPath><clipPath id="clip33"><rect x="705" y="318" width="96" height="96"/></clipPath><clipPath id="clip34"><rect x="705" y="318" width="96" height="96"/></clipPath><clipPath id="clip35"><rect x="705" y="318" width="96" height="96"/></clipPath><clipPath id="clip36"><rect x="1016" y="376" width="96" height="96"/></clipPath><clipPath id="clip37"><rect x="1016" y="376" width="96" height="96"/></clipPath><clipPath id="clip38"><rect x="1016" y="376" width="96" height="96"/></clipPath><clipPath id="clip39"><rect x="453" y="222" width="96" height="96"/></clipPath><clipPath id="clip40"><rect x="453" y="222" width="96" height="96"/></clipPath><clipPath id="clip41"><rect x="453" y="222" width="96" height="96"/></clipPath><clipPath id="clip42"><rect x="327" y="196" width="96" height="96"/></clipPath><clipPath id="clip43"><rect x="327" y="196" width="96" height="96"/></clipPath><clipPath id="clip44"><rect x="327" y="196" width="96" height="96"/></clipPath><clipPath id="clip45"><rect x="746" y="215" width="96" height="96"/></clipPath><clipPath id="clip46"><rect x="746" y="215" width="96" height="96"/></clipPath><clipPath id="clip47"><rect x="746" y="215" width="96" height="96"/></clipPath><clipPath id="clip48"><rect x="862" y="192" width="96" height="96"/></clipPath><clipPath id="clip49"><rect x="862" y="192" width="96" height="96"/></clipPath><clipPath id="clip50"><rect x="862" y="192" width="96" height="96"/></clipPath><clipPath id="clip51"><rect x="201" y="215" width="96" height="96"/></clipPath><clipPath id="clip52"><rect x="201" y="215" width="96" height="96"/></clipPath><clipPath id="clip53"><rect x="201" y="215" width="96" height="96"/></clipPath><clipPath id="clip54"><rect x="100" y="285" width="96" height="96"/></clipPath><clipPath id="clip55"><rect x="100" y="285" width="96" height="96"/></clipPath><clipPath id="clip56"><rect x="100" y="285" width="96" height="96"/></clipPath><clipPath id="clip57"><rect x="899" y="312" width="96" height="96"/></clipPath><clipPath id="clip58"><rect x="899" y="312" width="96" height="96"/></clipPath><clipPath id="clip59"><rect x="899" y="312" width="96" height="96"/></clipPath><clipPath id="clip60"><rect x="287" y="312" width="96" height="96"/></clipPath><clipPath id="clip61"><rect x="287" y="312" width="96" height="96"/></clipPath><clipPath id="clip62"><rect x="287" y="312" width="96" height="96"/></clipPath></defs><g clip-path="url(#clip2)" transform="translate(36 -72)"><g clip-path="url(#clip3)" filter="url(#fx0)" transform="matrix(3.98913 0 0 4 575 72)"><g clip-path="url(#clip4)"><path d="M36.7218 54.0609C35.1496 43.5253 43.2451 33.8226 54.8037 32.3895 59.4874 31.8088 64.2494 32.6769 68.3278 34.8549 72.6493 27.4296 82.7478 24.6077 90.8834 28.5518 92.306 29.2415 93.6116 30.1157 94.7597 31.147 98.1254 24.992 106.323 22.4914 113.071 25.5617 114.938 26.4115 116.567 27.6405 117.833 29.1543 123.257 23.3337 132.844 22.6147 139.244 27.5484 141.934 29.622 143.747 32.4821 144.372 35.6383 153.26 37.8491 158.504 46.2231 156.084 54.3423 155.88 55.0248 155.625 55.6936 155.32 56.3438 162.448 64.8038 160.703 76.9296 151.422 83.4274 148.533 85.4501 145.12 86.7596 141.514 87.2297 141.434 96.3314 133.268 103.651 123.275 103.578 119.937 103.553 116.671 102.688 113.839 101.078 110.459 111.282 98.6696 117.049 87.5068 113.96 82.8285 112.665 78.7864 109.927 76.0699 106.212 64.6405 112.496 49.8056 109.116 42.9351 98.6612 42.8486 98.5295 42.7635 98.3969 42.6799 98.2635 35.1999 99.0617 28.4244 94.1959 27.5464 87.3956 27.0785 83.7708 28.391 80.1428 31.1343 77.4783 24.6577 74.0024 22.482 66.373 26.2749 60.4377 28.4631 57.0135 32.3008 54.7498 36.608 54.3428Z" fill="#FF0000" fill-rule="evenodd"/></g></g><path d="M718.66 285.415C712.388 243.273 744.682 204.462 790.791 198.73 809.474 196.407 828.471 199.879 844.74 208.591 861.979 178.89 902.263 167.602 934.717 183.379 940.392 186.138 945.601 189.634 950.18 193.76 963.607 169.14 996.31 159.137 1023.23 171.418 1030.67 174.818 1037.17 179.734 1042.22 185.789 1063.86 162.506 1102.1 159.63 1127.63 179.365 1138.36 187.66 1145.6 199.1 1148.09 211.725 1183.55 220.568 1204.46 254.064 1194.81 286.541 1194 289.271 1192.98 291.946 1191.76 294.547 1220.2 328.387 1213.24 376.89 1176.21 402.881 1164.69 410.972 1151.07 416.21 1136.69 418.09 1136.37 454.497 1103.8 483.774 1063.93 483.482 1050.62 483.384 1037.59 479.923 1026.29 473.482 1012.81 514.298 965.778 537.368 921.248 525.01 902.585 519.831 886.461 508.878 875.624 494.019 830.031 519.157 770.853 505.635 743.445 463.816 743.1 463.289 742.761 462.759 742.427 462.226 712.588 465.418 685.56 445.955 682.058 418.754 680.191 404.255 685.427 389.743 696.37 379.085 670.534 365.181 661.855 334.664 676.986 310.922 685.714 297.225 701.024 288.171 718.206 286.543Z" fill="url(#fill5)" fill-rule="evenodd"/><g clip-path="url(#clip6)" filter="url(#fx1)" transform="matrix(3.98913 0 0 4 -36 86)"><g clip-path="url(#clip7)"><path d="M36.7218 54.0609C35.1496 43.5253 43.2451 33.8226 54.8037 32.3895 59.4874 31.8088 64.2494 32.6769 68.3278 34.8549 72.6493 27.4296 82.7478 24.6077 90.8834 28.5518 92.306 29.2415 93.6117 30.1157 94.7597 31.147 98.1254 24.992 106.323 22.4914 113.071 25.5617 114.938 26.4115 116.567 27.6405 117.833 29.1543 123.257 23.3337 132.844 22.6147 139.244 27.5484 141.934 29.622 143.747 32.4821 144.372 35.6383 153.26 37.8491 158.504 46.2231 156.084 54.3423 155.88 55.0248 155.625 55.6936 155.32 56.3438 162.448 64.8038 160.703 76.9296 151.422 83.4274 148.533 85.4501 145.12 86.7596 141.514 87.2297 141.434 96.3314 133.268 103.651 123.275 103.578 119.937 103.553 116.671 102.688 113.839 101.078 110.459 111.282 98.6696 117.049 87.5068 113.96 82.8285 112.665 78.7864 109.927 76.0699 106.212 64.6405 112.496 49.8056 109.116 42.9352 98.6612 42.8486 98.5295 42.7635 98.3969 42.6799 98.2635 35.1999 99.0617 28.4244 94.1959 27.5464 87.3956 27.0785 83.7708 28.391 80.1428 31.1343 77.4783 24.6577 74.0024 22.482 66.373 26.2749 60.4377 28.4631 57.0135 32.3008 54.7498 36.608 54.3428Z" fill="#FF0000" fill-rule="evenodd"/></g></g><path d="M107.66 299.415C101.388 257.273 133.682 218.462 179.791 212.73 198.475 210.407 217.471 213.879 233.74 222.591 250.979 192.89 291.263 181.602 323.717 197.379 329.392 200.138 334.601 203.634 339.18 207.76 352.607 183.14 385.31 173.137 412.225 185.418 419.675 188.818 426.173 193.734 431.221 199.789 452.862 176.506 491.102 173.63 516.633 193.365 527.363 201.66 534.595 213.1 537.089 225.725 572.547 234.568 593.464 268.064 583.809 300.541 582.998 303.271 581.979 305.946 580.762 308.547 609.199 342.387 602.237 390.89 565.213 416.881 553.688 424.972 540.075 430.21 525.688 432.09 525.369 468.497 492.795 497.774 452.933 497.482 439.615 497.384 426.587 493.923 415.289 487.482 401.806 528.298 354.778 551.368 310.248 539.01 291.585 533.831 275.461 522.878 264.624 508.019 219.031 533.157 159.853 519.635 132.445 477.816 132.1 477.289 131.761 476.759 131.427 476.226 101.588 479.418 74.5601 459.955 71.0579 432.754 69.1912 418.255 74.4271 403.743 85.3703 393.085 59.5342 379.181 50.8554 348.664 65.9856 324.922 74.7144 311.225 90.0237 302.171 107.206 300.543Z" fill="url(#fill8)" fill-rule="evenodd"/><g clip-path="url(#clip9)"><g clip-path="url(#clip10)"><g clip-path="url(#clip11)"><path d="M158 409 158 481 232 481 232 409ZM226 442 198 442 198 415 226 415ZM192 415 192 442 164 442 164 415ZM164 448 192 448 192 475 164 475ZM198 475 198 448 226 448 226 475Z"/><path d="M187 426 180 426 180 419 176 419 176 426 169 426 169 430 176 430 176 437 180 437 180 430 187 430 187 426Z"/><path d="M185.78 456.05 182.95 453.22 178 458.17 173.05 453.22 170.22 456.05 175.17 461 170.22 465.95 173.05 468.78 178 463.83 182.95 468.78 185.78 465.95 180.83 461 185.78 456.05Z"/><path d="M203 430 203 426 221 426 221 430Z"/><path d="M203 464 203 460 221 460 221 464Z"/><path d="M214 456C214 457.105 213.105 458 212 458 210.895 458 210 457.105 210 456 210 454.895 210.895 454 212 454 213.105 454 214 454.895 214 456Z"/><path d="M214 468C214 469.105 213.105 470 212 470 210.895 470 210 469.105 210 468 210 466.895 210.895 466 212 466 213.105 466 214 466.895 214 468Z"/></g></g></g><g clip-path="url(#clip12)"><g clip-path="url(#clip13)"><g clip-path="url(#clip14)"><path d="M1099 313 1099 385 1173 385 1173 313ZM1167 346 1139 346 1139 319 1167 319ZM1133 319 1133 346 1105 346 1105 319ZM1105 352 1133 352 1133 379 1105 379ZM1139 379 1139 352 1167 352 1167 379Z"/><path d="M1128 330 1121 330 1121 323 1117 323 1117 330 1110 330 1110 334 1117 334 1117 341 1121 341 1121 334 1128 334 1128 330Z"/><path d="M1126.78 360.05 1123.95 357.22 1119 362.17 1114.05 357.22 1111.22 360.05 1116.17 365 1111.22 369.95 1114.05 372.78 1119 367.83 1123.95 372.78 1126.78 369.95 1121.83 365 1126.78 360.05Z"/><path d="M1144 334 1144 330 1162 330 1162 334Z"/><path d="M1144 368 1144 364 1162 364 1162 368Z"/><path d="M1155 360C1155 361.105 1154.1 362 1153 362 1151.9 362 1151 361.105 1151 360 1151 358.895 1151.9 358 1153 358 1154.1 358 1155 358.895 1155 360Z"/><path d="M1155 372C1155 373.105 1154.1 374 1153 374 1151.9 374 1151 373.105 1151 372 1151 370.895 1151.9 370 1153 370 1154.1 370 1155 370.895 1155 372Z"/></g></g></g><g clip-path="url(#clip15)"><g clip-path="url(#clip16)"><g clip-path="url(#clip17)"><path d="M516.547 380.841C505.941 379.996 496.05 375.156 488.875 367.3 487.522 365.732 485.155 365.558 483.587 366.911 483.448 367.031 483.318 367.161 483.198 367.3 476.023 375.156 466.132 379.996 455.526 380.841 453.555 381.026 452.053 382.688 452.068 384.667L452.068 394.32C452.068 415.306 465.415 434.503 483.947 446.382 485.22 447.2 486.853 447.2 488.126 446.382 506.658 434.5 520.005 415.306 520.005 394.32L520.005 384.667C520.02 382.688 518.518 381.026 516.547 380.841ZM513.505 394.32C513.505 411.02 503.556 427.867 486.891 439.396L486.037 439.987 485.184 439.396C468.518 427.866 458.567 411.015 458.567 394.32L458.567 387.069 459.831 386.869C469.248 385.38 478.013 381.135 485.02 374.669L486.036 373.733 487.053 374.669C494.06 381.135 502.824 385.38 512.241 386.869L513.505 387.069Z"/><path d="M486.036 377.788C479.093 383.86 470.639 387.945 461.567 389.612L461.567 394.32C461.567 409.747 470.694 425.383 486.037 436.33 501.378 425.385 510.505 409.748 510.505 394.32L510.505 389.612C501.433 387.945 492.979 383.86 486.036 377.788ZM483.468 416.833 473.356 406.72 476.792 403.284 483.468 409.96 497.14 396.288 500.576 399.725Z"/></g></g></g><g clip-path="url(#clip18)"><g clip-path="url(#clip19)"><g clip-path="url(#clip20)"><path d="M949.006 462.1 949.006 466.1C948.306 466.1 947.706 466 947.006 466 946.338 465.983 945.669 466.017 945.006 466.1L945.006 462.1C941.241 462.285 937.529 463.061 934.006 464.4L935.506 468C934.206 468.5 933.006 469 931.806 469.6L930.306 465.9C928.45 466.81 926.676 467.881 925.006 469.1L920.706 464.8C928.28 459.08 937.515 455.99 947.006 456 971.307 456 991.006 475.699 991.006 500L991.006 504 985.006 504 985.006 500C984.993 495.992 984.352 492.01 983.106 488.2L979.406 489.7C979.006 488.4 978.506 487.2 978.006 486L981.706 484.5C980.195 481.111 978.171 477.974 975.706 475.2L972.906 478C972.024 476.985 971.089 476.017 970.106 475.1L972.906 472.3C970.156 469.744 967.059 467.589 963.706 465.9L962.206 469.6C961.006 469 959.806 468.5 958.506 468L960.006 464.3C956.477 462.994 952.765 462.252 949.006 462.1Z"/><path d="M910.906 474.8 915.206 479.1C914.104 480.789 913.135 482.561 912.306 484.4L916.006 486C915.506 487.2 915.006 488.5 914.606 489.7L910.906 488.2C909.66 492.01 909.019 495.992 909.006 500L909.006 504 903.006 504 903.006 500C902.986 490.987 905.744 482.188 910.906 474.8Z"/><path d="M949.806 498.2C950.006 498.3 950.106 498.5 950.306 498.7 951.747 500.408 951.529 502.961 949.821 504.401 948.113 505.842 945.56 505.625 944.12 503.917 944.115 503.911 944.111 503.906 944.106 503.9L913.006 467Z"/></g></g></g><g clip-path="url(#clip21)"><g clip-path="url(#clip22)"><g clip-path="url(#clip23)"><path d="M319.433 459.413C320.102 462.658 323.276 464.747 326.521 464.077 329.767 463.408 331.855 460.234 331.186 456.989 330.516 453.745 327.345 451.656 324.1 452.324 320.854 452.992 318.764 456.164 319.432 459.41 319.433 459.411 319.433 459.412 319.433 459.413Z"/><path d="M296.414 444.374C296.204 444.021 296.07 443.627 296.022 443.218 295.907 442.295 296.227 441.372 296.888 440.718L295.419 439.361C293.839 440.981 293.544 443.461 294.7 445.406 295.141 446.121 295.743 446.723 296.457 447.164 297.387 447.731 298.408 448.133 299.475 448.351L299.914 446.4C299.074 446.232 298.269 445.92 297.534 445.479 297.081 445.202 296.697 444.824 296.414 444.374Z"/><path d="M318.034 439.326C318.245 439.679 318.378 440.073 318.425 440.482 318.541 441.405 318.222 442.329 317.56 442.982L319.028 444.34C320.094 443.258 320.604 441.746 320.41 440.24 320.33 439.552 320.104 438.889 319.748 438.295 319.306 437.58 318.705 436.978 317.991 436.535L316.913 438.218C317.367 438.496 317.75 438.876 318.034 439.326Z"/><path d="M356.541 438.646 356.432 440.646C356.911 440.672 357.379 440.685 357.832 440.685 359.072 440.7 360.31 440.571 361.52 440.3 362.421 440.098 363.281 439.742 364.06 439.247 364.677 438.848 365.202 438.322 365.6 437.705 366.209 436.735 366.465 435.585 366.325 434.449L364.341 434.699C364.379 435.01 364.367 435.324 364.306 435.631 364.238 435.986 364.104 436.325 363.912 436.631 363.664 437.01 363.339 437.333 362.957 437.577 362.371 437.943 361.726 438.205 361.051 438.353 359.569 438.662 358.051 438.761 356.541 438.646Z"/><path d="M342.841 433.856C342.228 433.157 341.975 432.212 342.157 431.3 342.225 430.945 342.359 430.606 342.551 430.3 342.799 429.921 343.125 429.598 343.506 429.353 344.092 428.987 344.737 428.724 345.412 428.576 346.469 428.343 347.549 428.233 348.631 428.249L348.631 426.249C347.391 426.232 346.153 426.361 344.943 426.632 344.041 426.833 343.18 427.189 342.4 427.684 341.783 428.084 341.258 428.61 340.859 429.227 340.533 429.744 340.306 430.317 340.191 430.917 339.893 432.404 340.294 433.946 341.278 435.1Z"/><path d="M355.268 466.49C354.183 468.319 354.373 470.633 355.742 472.26 356.187 472.777 356.731 473.199 357.342 473.501 358.098 473.869 358.913 474.103 359.749 474.194 360.204 474.248 360.663 474.275 361.121 474.273 361.766 474.271 362.41 474.229 363.05 474.149L362.8 472.164C361.868 472.292 360.924 472.307 359.988 472.209 359.38 472.146 358.788 471.979 358.237 471.715 357.865 471.533 357.533 471.278 357.262 470.965 357.045 470.707 356.874 470.413 356.756 470.097 356.427 469.227 356.521 468.254 357.01 467.463Z"/><path d="M379.766 461.474C379.567 460.941 379.278 460.446 378.91 460.012 378.465 459.496 377.921 459.074 377.31 458.771 376.553 458.404 375.739 458.17 374.903 458.078L374.657 460.063C375.265 460.126 375.857 460.293 376.408 460.557 376.781 460.739 377.112 460.995 377.384 461.308 377.601 461.566 377.772 461.859 377.89 462.175 378.139 462.826 378.144 463.544 377.905 464.198L379.794 464.854C380.186 463.759 380.175 462.561 379.763 461.474Z"/><path d="M366.368 463.579C361.568 465.379 358.104 467.979 358.633 469.394 359.095 470.628 362.451 470.544 366.493 469.304L366.493 487.244 351.677 489.189 344.162 479.131 338.62 468.057 338.609 467.465 346.509 468.86C347.712 469.072 348.923 468.534 349.572 467.5L355.034 458.761C355.877 457.407 355.51 455.631 354.201 454.721L354.201 436.4C358.566 437.036 362.083 436.58 362.343 435.249 362.632 433.769 358.788 431.772 353.755 430.788 348.722 429.804 344.409 430.207 344.12 431.688 343.841 433.117 347.42 435.026 352.201 436.041L352.201 454.194C351.275 454.279 350.441 454.791 349.946 455.578L345.557 462.6 338.149 461.291C337.888 461.249 337.623 461.242 337.36 461.269 336.831 461.219 336.302 461.366 335.874 461.681L322.974 468.427 322.923 468.465 316.97 470.977 309.241 464C308.973 463.76 308.663 463.572 308.327 463.443L308.327 444.454C313.039 443.761 316.613 442.144 316.439 440.724 316.257 439.224 311.983 438.517 306.893 439.139 301.803 439.761 297.825 441.477 298.008 442.974 298.176 444.349 301.796 445.056 306.327 444.682L306.327 463.375C304.753 463.86 303.87 465.528 304.354 467.102 304.514 467.622 304.813 468.088 305.219 468.45L314.363 476.709C315.228 477.49 316.466 477.7 317.54 477.247L326.38 473.518 326.494 473.618 332.822 484.418 326.846 494.538C326.294 495.472 326.289 496.632 326.834 497.57L335.5 512.505C336.332 513.938 338.168 514.426 339.601 513.594 341.034 512.762 341.522 510.926 340.69 509.493L332.906 496.077 340.14 483.831 340.179 483.825 347.922 494.188C348.572 495.057 349.64 495.508 350.716 495.366L367.84 493.119C369.477 492.91 370.635 491.413 370.426 489.775 370.284 488.669 369.539 487.734 368.493 487.349L368.493 468.612C373.184 466.812 376.541 464.27 376.02 462.878 375.491 461.466 371.169 461.78 366.368 463.579Z"/></g></g></g><g clip-path="url(#clip24)"><g clip-path="url(#clip25)"><g clip-path="url(#clip26)"><path d="M989.885 202.811 1032.45 202.811 1032.45 198.167C1032.45 196.289 1030.93 194.767 1029.06 194.767L1003.58 194.767 994.234 188.567C993.675 188.205 993.03 188 992.365 187.972L976.4 187.972C974.522 187.972 973 189.494 973 191.372L973 233.766 973.034 233.766 984.284 206.435C985.289 204.242 987.473 202.829 989.885 202.811Z"/><path d="M1014.96 220.947C1020.38 215.525 1028.77 214.41 1035.42 218.225L1038.91 210.725C1039.14 210.251 1039.25 209.73 1039.25 209.204 1039.26 207.458 1037.95 205.988 1036.21 205.804L989.9 205.804C988.656 205.812 987.53 206.541 987.012 207.672L975.548 235.538 1010.19 235.538C1009.37 230.193 1011.14 224.775 1014.96 220.947Z"/><path d="M1021.32 227.311C1019.17 229.465 1018.43 232.656 1019.41 235.538L1027.36 235.538 1031.59 226.438C1028.42 224.189 1024.08 224.557 1021.32 227.308Z"/><path d="M1036.88 223.068C1031.42 217.599 1022.56 217.593 1017.09 223.054 1012.08 228.052 1011.59 236 1015.95 241.574L1013.76 243.767C1012.56 243.441 1011.27 243.782 1010.39 244.661L1004.03 251.025C1002.66 252.392 1002.66 254.608 1004.03 255.975 1005.39 257.342 1007.61 257.342 1008.97 255.975L1015.34 249.611C1016.22 248.729 1016.56 247.444 1016.23 246.242L1018.43 244.042C1024.54 248.773 1033.33 247.656 1038.06 241.545 1042.38 235.968 1041.87 228.048 1036.88 223.068ZM1034.76 240.746C1030.46 245.042 1023.5 245.042 1019.2 240.746 1014.91 236.451 1014.91 229.486 1019.2 225.19 1023.5 220.894 1030.46 220.894 1034.76 225.19 1034.76 225.19 1034.76 225.19 1034.76 225.19 1039.05 229.488 1039.05 236.448 1034.76 240.746Z"/></g></g></g><g clip-path="url(#clip27)"><g clip-path="url(#clip28)"><g clip-path="url(#clip29)"><path d="M830.5 397C830.5 392.58 827.37 389 823.5 389 819.63 389 816.5 392.58 816.5 397 816.5 401 819.71 405.84 822.5 406.81 822.495 406.873 822.495 406.937 822.5 407 822.438 409.461 822.776 411.917 823.5 414.27 824.195 416.444 824.533 418.717 824.5 421 824.533 423.283 824.195 425.556 823.5 427.73 823.29 428.45 823.08 429.19 822.91 430.06 822.296 430.168 821.731 430.469 821.3 430.92L810.65 442 803.78 442C799.09 442.35 795.13 446.07 794.18 448.5 793.94 449.13 791.06 455.92 789.18 460.33 788.535 461.854 789.247 463.613 790.77 464.26 791.139 464.422 791.537 464.504 791.94 464.5 793.141 464.501 794.227 463.785 794.7 462.68L798 454.93 798 481 804 481 804 463 807 463 807 481 813 481 813 448.21 825.66 435.08C826.808 433.887 826.772 431.989 825.58 430.84 825.382 430.654 825.16 430.496 824.92 430.37 825.08 429.62 825.27 428.95 825.46 428.27 826.184 425.917 826.522 423.461 826.46 421 826.522 418.539 826.184 416.083 825.46 413.73 824.765 411.556 824.427 409.283 824.46 407 824.465 406.937 824.465 406.873 824.46 406.81 827.29 405.84 830.5 401 830.5 397Z"/><path d="M813 432.5C813 436.642 809.642 440 805.5 440 801.358 440 798 436.642 798 432.5 798 428.358 801.358 425 805.5 425 809.642 425 813 428.358 813 432.5Z"/></g></g></g><g clip-path="url(#clip30)"><g clip-path="url(#clip31)"><g clip-path="url(#clip32)"><path d="M1126.3 274.1C1124.8 272.6 1123.9 270.5 1123.9 268.4L1123.3 267.8C1114.2 273.4 1102.6 272.8 1094.1 266.3L1093.8 266.5C1092.7 267.3 1092 268.6 1092 270L1092 279 1128 279 1128 275.8 1126.3 274.1Z"/><path d="M1135.5 244.5C1140.4 243.7 1143.7 239 1142.9 234.1 1142.1 229.2 1137.4 225.9 1132.5 226.7 1131.1 226.9 1129.8 227.5 1128.7 228.3 1132.8 232.7 1135.2 238.4 1135.5 244.5Z"/><path d="M1150.2 252.4C1147.6 250.4 1144.6 248.9 1141.4 248.2 1139.5 247.6 1137.5 247.3 1135.5 247.1 1135.3 251.4 1134 255.6 1131.7 259.3L1132.3 259.9C1134.4 259.9 1136.5 260.8 1138 262.3L1140.7 265 1152 265 1152 256C1152 254.6 1151.4 253.2 1150.2 252.4Z"/><path d="M1145.4 273.9 1136 264.4C1134.7 263.2 1133 262.6 1131.2 263L1127.8 259.7C1130.9 255.7 1132.5 250.9 1132.5 245.9 1132.6 233.3 1122.4 223 1109.7 222.9 1097 222.8 1086.9 233 1086.9 245.6 1086.9 258.2 1097 268.5 1109.7 268.6 1114.7 268.6 1119.6 267 1123.7 263.9L1127.1 267.2C1126.8 268.9 1127.3 270.7 1128.5 272L1138 281.5C1140 283.6 1143.4 283.7 1145.5 281.7 1147.6 279.7 1147.7 276.3 1145.7 274.2 1145.6 274.1 1145.5 274 1145.4 273.9L1145.4 273.9ZM1109.8 227.6C1119.9 227.6 1128 235.7 1128 245.8 1128 250.1 1126.5 254.3 1123.7 257.5 1121.8 256.6 1119.9 255.9 1117.9 255.4 1115.2 254.6 1112.4 254.1 1109.6 254.1 1106.8 254.1 1104 254.6 1101.3 255.4 1099.4 255.9 1097.6 256.6 1095.9 257.6 1089.4 250 1090.3 238.5 1097.9 232 1101.2 229.1 1105.4 227.6 1109.8 227.6Z"/><path d="M1119.7 241.8C1119.7 247.378 1115.18 251.9 1109.6 251.9 1104.02 251.9 1099.5 247.378 1099.5 241.8 1099.5 236.222 1104.02 231.7 1109.6 231.7 1115.18 231.7 1119.7 236.222 1119.7 241.8Z"/><path d="M1084 247.1C1082.2 247.3 1080.4 247.6 1078.6 248.2 1075.5 249.1 1072.5 250.6 1069.8 252.4 1068.6 253.2 1068 254.6 1068 256L1068 265 1089.6 265C1090 264.4 1090.5 263.9 1091.1 263.5 1086.8 259 1084.3 253.2 1084 247.1Z"/><path d="M1084 244.4C1084.3 238.3 1086.8 232.6 1091 228.1 1086.9 225.3 1081.3 226.4 1078.5 230.6 1075.7 234.8 1076.8 240.3 1081 243.1 1081.9 243.7 1082.9 244.1 1084 244.4Z"/></g></g></g><g clip-path="url(#clip33)"><g clip-path="url(#clip34)"><g clip-path="url(#clip35)"><path d="M738 348.8C738 353.771 733.971 357.8 729 357.8 724.029 357.8 720 353.771 720 348.8 720 343.829 724.029 339.8 729 339.8 733.971 339.8 738 343.829 738 348.8Z"/><path d="M786 348.8C786 353.771 781.971 357.8 777 357.8 772.029 357.8 768 353.771 768 348.8 768 343.829 772.029 339.8 777 339.8 781.971 339.8 786 343.829 786 348.8Z"/><path d="M771 392.2 771 383.2C771 381.8 770.4 380.4 769.2 379.6 766.8 377.6 763.6 376.2 760.4 375.4 758.2 374.8 755.6 374.2 753 374.2 750.6 374.2 748 374.6 745.6 375.4 742.4 376.2 739.4 377.8 736.8 379.6 735.6 380.6 735 381.8 735 383.2L735 392.2 771 392.2Z"/><path d="M762 362.8C762 367.771 757.971 371.8 753 371.8 748.029 371.8 744 367.771 744 362.8 744 357.829 748.029 353.8 753 353.8 757.971 353.8 762 357.829 762 362.8Z"/><path d="M793.2 365.6C790.8 363.6 787.6 362.2 784.4 361.4 782.2 360.8 779.6 360.2 777 360.2 774.6 360.2 772 360.6 769.6 361.4 768.4 361.8 767.2 362.2 766 362.8L766 363C766 366.4 764.6 369.6 762.4 371.8 766.2 373 769.2 374.6 771.6 376.4 772.2 377 772.8 377.4 773.2 378.2L795 378.2 795 369.2C795 367.8 794.4 366.4 793.2 365.6Z"/><path d="M734.4 376.4 734.4 376.4C737.2 374.4 740.4 372.8 743.6 371.8 741.4 369.4 740 366.4 740 363 740 362.8 740 362.8 740 362.6 738.8 362.2 737.6 361.6 736.4 361.4 734.2 360.8 731.6 360.2 729 360.2 726.6 360.2 724 360.6 721.6 361.4 718.4 362.4 715.4 363.8 712.8 365.6 711.6 366.4 711 367.8 711 369.2L711 378.2 732.6 378.2C733.2 377.4 733.6 377 734.4 376.4Z"/></g></g></g><g clip-path="url(#clip36)"><g clip-path="url(#clip37)"><g clip-path="url(#clip38)"><path d="M1027.01 389 1033.01 389 1033.01 419 1027.01 419Z"/><path d="M1053.01 395C1054.11 395 1055.01 395.895 1055.01 397L1055.01 411C1055.01 412.105 1054.11 413 1053.01 413L1047.01 413C1045.9 413 1045.01 412.105 1045.01 411L1045.01 397C1045.01 395.895 1045.9 395 1047.01 395L1053.01 395M1053.01 389 1047.01 389C1042.59 389 1039.01 392.582 1039.01 397L1039.01 411C1039.01 415.418 1042.59 419 1047.01 419L1053.01 419C1057.42 419 1061.01 415.418 1061.01 411L1061.01 397C1061.01 392.582 1057.42 389 1053.01 389Z"/><path d="M1067.01 389 1073.01 389 1073.01 419 1067.01 419Z"/><path d="M1093.01 395C1094.11 395 1095.01 395.895 1095.01 397L1095.01 411C1095.01 412.105 1094.11 413 1093.01 413L1087.01 413C1085.9 413 1085.01 412.105 1085.01 411L1085.01 397C1085.01 395.895 1085.9 395 1087.01 395L1093.01 395M1093.01 389 1087.01 389C1082.59 389 1079.01 392.582 1079.01 397L1079.01 411C1079.01 415.418 1082.59 419 1087.01 419L1093.01 419C1097.42 419 1101.01 415.418 1101.01 411L1101.01 397C1101.01 392.582 1097.42 389 1093.01 389Z"/><path d="M1027.01 429 1033.01 429 1033.01 459 1027.01 459Z"/><path d="M1053.01 435C1054.11 435 1055.01 435.895 1055.01 437L1055.01 451C1055.01 452.105 1054.11 453 1053.01 453L1047.01 453C1045.9 453 1045.01 452.105 1045.01 451L1045.01 437C1045.01 435.895 1045.9 435 1047.01 435L1053.01 435M1053.01 429 1047.01 429C1042.59 429 1039.01 432.582 1039.01 437L1039.01 451C1039.01 455.418 1042.59 459 1047.01 459L1053.01 459C1057.42 459 1061.01 455.418 1061.01 451L1061.01 437C1061.01 432.582 1057.42 429 1053.01 429Z"/><path d="M1067.01 429 1073.01 429 1073.01 459 1067.01 459Z"/><path d="M1093.01 435C1094.11 435 1095.01 435.895 1095.01 437L1095.01 451C1095.01 452.105 1094.11 453 1093.01 453L1087.01 453C1085.9 453 1085.01 452.105 1085.01 451L1085.01 437C1085.01 435.895 1085.9 435 1087.01 435L1093.01 435M1093.01 429 1087.01 429C1082.59 429 1079.01 432.582 1079.01 437L1079.01 451C1079.01 455.418 1082.59 459 1087.01 459L1093.01 459C1097.42 459 1101.01 455.418 1101.01 451L1101.01 437C1101.01 432.582 1097.42 429 1093.01 429Z"/></g></g></g><g clip-path="url(#clip39)"><g clip-path="url(#clip40)"><g clip-path="url(#clip41)"><path d="M463 256 470 256 470 260 463 260Z"/><path d="M463 248 470 248 470 252 463 252Z"/><path d="M463 264 470 264 470 268 463 268Z"/><path d="M463 288 470 288 470 292 463 292Z"/><path d="M463 280 470 280 470 284 463 284Z"/><path d="M463 272 470 272 470 276 463 276Z"/><path d="M532 280 539 280 539 284 532 284Z"/><path d="M532 288 539 288 539 292 532 292Z"/><path d="M532 272 539 272 539 276 532 276Z"/><path d="M532 248 539 248 539 252 532 252Z"/><path d="M532 264 539 264 539 268 532 268Z"/><path d="M532 256 539 256 539 260 532 260Z"/><path d="M503 232 507 232 507 239 503 239Z"/><path d="M519 232 523 232 523 239 519 239Z"/><path d="M511 232 515 232 515 239 511 239Z"/><path d="M495 232 499 232 499 239 495 239Z"/><path d="M479 232 483 232 483 239 479 239Z"/><path d="M487 232 491 232 491 239 487 239Z"/><path d="M487 301 491 301 491 308 487 308Z"/><path d="M479 301 483 301 483 308 479 308Z"/><path d="M495 301 499 301 499 308 495 308Z"/><path d="M503 301 507 301 507 308 503 308Z"/><path d="M511 301 515 301 515 308 511 308Z"/><path d="M519 301 523 301 523 308 519 308Z"/><path d="M488 257 514 257 514 283 488 283Z"/><path d="M524 243 478 243C475.791 243 474 244.791 474 247L474 293C474 295.209 475.791 297 478 297L524 297C526.209 297 528 295.209 528 293L528 247C528 244.791 526.209 243 524 243ZM518 287 484 287 484 253 518 253Z"/></g></g></g><g clip-path="url(#clip42)"><g clip-path="url(#clip43)"><g clip-path="url(#clip44)"><path d="M401.2 240 378 240 378 207C378 205.3 376.7 204 375 204 373.3 204 372 205.3 372 207L372 216 349 216C343.7 221.4 338.9 226.1 338.8 226L348.8 236 372 236 372 284 378 284 378 260 401 260C406.3 254.6 411.1 249.9 411.2 250L401.2 240Z"/></g></g></g><g clip-path="url(#clip45)"><g clip-path="url(#clip46)"><g clip-path="url(#clip47)"><path d="M794.006 229C812.784 229 828.006 244.222 828.006 263 828.006 281.778 812.784 297 794.006 297 775.228 297 760.006 281.778 760.006 263 760.028 244.231 775.237 229.021 794.006 229M794.006 225C773.019 225 756.006 242.013 756.006 263 756.006 283.987 773.019 301 794.006 301 814.993 301 832.006 283.987 832.006 263 832.006 242.013 814.993 225 794.006 225Z"/><path d="M807.9 268.751C802.026 268.747 797.264 263.987 797.257 258.113 797.262 253.221 801.226 249.257 806.118 249.251 810.225 249.255 813.553 252.583 813.557 256.69 813.557 260.146 811.289 262.56 808.042 262.56 806.889 262.543 805.79 262.067 804.987 261.239 804.256 260.502 803.858 259.497 803.887 258.459 803.92 257.492 804.73 256.736 805.696 256.768 806.663 256.801 807.42 257.612 807.387 258.578 807.396 258.666 807.438 258.748 807.505 258.806 807.647 258.954 807.839 259.044 808.043 259.06 809.796 259.06 810.058 257.575 810.058 256.69 810.056 254.516 808.294 252.753 806.119 252.751 803.159 252.754 800.761 255.153 800.758 258.113 800.762 262.055 803.958 265.249 807.9 265.251 813.067 265.245 817.255 261.057 817.261 255.89 817.261 254.923 818.044 254.14 819.011 254.14 819.977 254.14 820.761 254.923 820.761 255.89 820.753 262.99 815 268.743 807.9 268.751Z"/><path d="M773.457 261.312C773.457 257.856 775.725 255.442 778.972 255.442 780.125 255.459 781.225 255.935 782.027 256.764 782.759 257.501 783.156 258.506 783.127 259.544 783.094 260.51 782.284 261.267 781.318 261.234 780.351 261.202 779.594 260.392 779.627 259.425 779.618 259.337 779.576 259.255 779.509 259.197 779.367 259.049 779.175 258.958 778.97 258.942 777.217 258.942 776.955 260.427 776.955 261.312 776.957 263.489 778.723 265.252 780.9 265.251 783.859 265.248 786.258 262.849 786.261 259.89 786.257 255.949 783.063 252.755 779.122 252.751 773.954 252.757 769.766 256.945 769.761 262.113 769.761 263.079 768.977 263.863 768.011 263.863 767.044 263.863 766.261 263.079 766.261 262.113 766.269 255.015 772.02 249.262 779.118 249.251 784.991 249.258 789.75 254.017 789.757 259.89 789.751 264.78 785.79 268.743 780.9 268.751 776.792 268.749 773.461 265.42 773.457 261.312Z"/><path d="M772.431 242.086 782.431 239.086C783.491 238.777 784.602 239.385 784.911 240.446 785.217 241.494 784.625 242.595 783.581 242.917L773.581 245.917C773.394 245.973 773.2 246.002 773.005 246.002 771.9 246.002 771.005 245.107 771.005 244.003 771.004 243.119 771.584 242.34 772.431 242.086Z"/><path d="M803.09 240.426C803.408 239.368 804.523 238.768 805.581 239.086 805.581 239.086 805.581 239.086 805.581 239.086L815.581 242.086C816.638 242.406 817.235 243.523 816.915 244.58 816.66 245.421 815.886 245.997 815.007 246 814.812 246 814.618 245.971 814.431 245.915L804.431 242.915C803.374 242.598 802.773 241.484 803.09 240.426Z"/><path d="M803.006 282.001C803.006 287.524 798.977 292.001 794.006 292.001 789.035 292.001 785.006 287.524 785.006 282.001 785.006 276.478 789.035 272.001 794.006 272.001 798.977 272.001 803.006 276.478 803.006 282.001Z"/></g></g></g><g clip-path="url(#clip48)"><g clip-path="url(#clip49)"><g clip-path="url(#clip50)"><path d="M870 241.4 870 257.8C870 266.7 877.2 273.9 886.1 273.9 891.7 273.9 896.8 271 899.8 266.3 906.2 271.1 913.9 273.7 921.9 273.7L935 273.7 935.5 273.7 932.6 276.6C931.8 277.4 931.8 278.6 932.6 279.4 933.4 280.2 934.6 280.2 935.4 279.4L941.4 273.4C942.2 272.6 942.2 271.4 941.4 270.6L935.4 264.5C934.7 263.7 933.4 263.6 932.6 264.3 931.8 265 931.7 266.3 932.4 267.1L932.4 267.1 932.5 267.2 934.5 269.3 934.8 269.6 921.9 269.6C914.5 269.6 907.3 267.1 901.5 262.5 901.6 262.3 901.7 262 901.7 261.8L906.3 244.3C908.2 237.3 912.9 231.3 919.3 227.9 923 233.6 925 240.2 925 246.9L925 247.1 922.4 244.5C921.6 243.7 920.4 243.7 919.6 244.5 918.8 245.3 918.8 246.5 919.6 247.3L925.6 253.3C926.4 254.1 927.6 254.1 928.4 253.3L934.5 247.3C935.3 246.5 935.4 245.3 934.6 244.5 933.9 243.7 932.6 243.6 931.8 244.4L931.7 244.5 929 247.2 929 246.9C929 239.6 926.9 232.5 923.1 226.4 925.9 225.4 928.8 224.9 931.8 224.9L949.2 224.9 946.6 227.5C945.8 228.3 945.8 229.6 946.6 230.3 947.4 231 948.7 231.1 949.4 230.3L955.4 224.3C956.2 223.5 956.2 222.3 955.4 221.5L955.4 221.5 949.4 215.4C948.6 214.6 947.4 214.5 946.6 215.3 945.8 216 945.7 217.3 946.5 218.1L946.6 218.2 949.2 220.8 931.7 220.8C927.9 220.8 924.2 221.5 920.6 222.9 915.9 217 909.6 212.5 902.4 210.2 908 206 914.9 203.8 921.9 203.8 923 203.8 923.9 202.9 923.9 201.8 923.9 200.7 923 199.8 921.9 199.8 913 199.8 904.3 203.1 897.6 209 889.7 207.5 881.5 208.5 874.1 212 873.1 212.5 872.6 213.6 873.1 214.6 873.6 215.6 874.7 216.1 875.7 215.6 875.7 215.6 875.7 215.6 875.8 215.6 880.4 213.4 885.4 212.3 890.4 212.3 891.6 212.3 892.8 212.4 894 212.5 880.9 227.5 882.1 250.1 896.6 263.6 893.3 269.4 885.9 271.5 880.1 268.2 876.3 266.1 873.9 262 873.9 257.6L873.9 241.9 873.9 241.6 876.5 244.2C877.3 245 878.5 245 879.3 244.2 880.1 243.4 880.1 242.2 879.3 241.4L873.3 235.4C872.5 234.6 871.3 234.6 870.5 235.4L864.4 241.4C863.6 242.1 863.5 243.4 864.2 244.2 864.9 245 866.2 245.1 867 244.4L867 244.4 867.1 244.3 870 241.4ZM902.5 243.4 898.2 259.6C885.7 246.6 886 226 898.8 213.4 905.9 215.2 912.3 219.1 917 224.8 909.8 228.8 904.6 235.5 902.5 243.4Z"/></g></g></g><g clip-path="url(#clip51)"><g clip-path="url(#clip52)"><g clip-path="url(#clip53)"><path d="M265.3 284.1C263.8 282.6 262.9 280.5 262.9 278.4L262.3 277.8C253.2 283.4 241.6 282.8 233.1 276.3L232.8 276.5C231.7 277.3 231 278.6 231 280L231 289 267 289 267 285.8 265.3 284.1Z"/><path d="M274.5 254.5C279.4 253.7 282.7 249 281.9 244.1 281.1 239.2 276.4 235.9 271.5 236.7 270.1 236.9 268.8 237.5 267.7 238.3 271.8 242.7 274.2 248.4 274.5 254.5Z"/><path d="M289.2 262.4C286.6 260.4 283.6 258.9 280.4 258.2 278.5 257.6 276.5 257.3 274.5 257.1 274.3 261.4 273 265.6 270.7 269.3L271.3 269.9C273.4 269.9 275.5 270.8 277 272.3L279.7 275 291 275 291 266C291 264.6 290.4 263.2 289.2 262.4Z"/><path d="M284.4 283.9 275 274.4C273.7 273.2 272 272.6 270.2 273L266.8 269.7C269.9 265.7 271.5 260.9 271.5 255.9 271.6 243.3 261.4 233 248.7 232.9 236 232.8 225.9 243 225.9 255.6 225.9 268.2 236 278.5 248.7 278.6 253.7 278.6 258.6 277 262.7 273.9L266.1 277.2C265.8 278.9 266.3 280.7 267.5 282L277 291.5C279 293.6 282.4 293.7 284.5 291.7 286.6 289.7 286.7 286.3 284.7 284.2 284.6 284.1 284.5 284 284.4 283.9L284.4 283.9ZM248.8 237.6C258.9 237.6 267 245.7 267 255.8 267 260.1 265.5 264.3 262.7 267.5 260.8 266.6 258.9 265.9 256.9 265.4 254.2 264.6 251.4 264.1 248.6 264.1 245.8 264.1 243 264.6 240.3 265.4 238.4 265.9 236.6 266.6 234.9 267.6 228.4 260 229.3 248.5 236.9 242 240.2 239.1 244.4 237.6 248.8 237.6Z"/><path d="M258.7 251.8C258.7 257.378 254.178 261.9 248.6 261.9 243.022 261.9 238.5 257.378 238.5 251.8 238.5 246.222 243.022 241.7 248.6 241.7 254.178 241.7 258.7 246.222 258.7 251.8Z"/><path d="M223 257.1C221.2 257.3 219.4 257.6 217.6 258.2 214.5 259.1 211.5 260.6 208.8 262.4 207.6 263.2 207 264.6 207 266L207 275 228.6 275C229 274.4 229.5 273.9 230.1 273.5 225.8 269 223.3 263.2 223 257.1Z"/><path d="M223 254.4C223.3 248.3 225.8 242.6 230 238.1 225.9 235.3 220.3 236.4 217.5 240.6 214.7 244.8 215.8 250.3 220 253.1 220.9 253.7 221.9 254.1 223 254.4Z"/></g></g></g><g clip-path="url(#clip54)"><g clip-path="url(#clip55)"><g clip-path="url(#clip56)"><path d="M144 365 142 365 142 361 114 361 114 365 112 365C109.8 365 108 366.8 108 369 108 371.2 109.8 373 112 373L144 373C146.2 373 148 371.2 148 369 148 366.8 146.2 365 144 365Z"/><path d="M143.9 345.1C145.1 343.9 145.1 342 143.9 340.9L128.1 325.1C126.9 323.9 125 323.9 123.9 325.1L120 329 140 349 143.9 345.1Z"/><path d="M167.9 316.9C169.1 318.1 171 318.1 172.1 316.9L176 313 156 293 152.1 296.9C150.9 298.1 150.9 300 152.1 301.1L167.9 316.9Z"/><path d="M187 352 160 325 166 319 150 303 130 323 146 339 154 331 181 358C182.7 359.7 185.3 359.7 187 358 188.7 356.3 188.7 353.7 187 352Z"/></g></g></g><g clip-path="url(#clip57)"><g clip-path="url(#clip58)"><g clip-path="url(#clip59)"><path d="M947 322C926.007 321.994 908.984 339.007 908.978 360 908.972 380.993 925.985 398.016 946.978 398.022 967.971 398.028 984.994 381.015 985 360.022 985 360.018 985 360.014 985 360.01 985.011 339.029 968.011 322.011 947.03 322 947.02 322 947.01 322 947 322ZM947 396.021C927.112 396.027 910.984 379.909 910.978 360.021 910.972 340.133 927.09 324.005 946.978 323.999 966.866 323.993 982.994 340.111 983 359.999 983 360.004 983 360.008 983 360.013 982.98 379.889 966.876 395.998 947 396.024Z"/><path d="M929 359 964 359 964 361 929 361Z"/></g></g></g><g clip-path="url(#clip60)"><g clip-path="url(#clip61)"><g clip-path="url(#clip62)"><path d="M335 322C314.007 321.994 296.984 339.007 296.978 360 296.972 380.993 313.985 398.016 334.978 398.022 355.971 398.028 372.994 381.015 373 360.022 373 360.018 373 360.014 373 360.01 373.011 339.029 356.011 322.011 335.03 322 335.02 322 335.01 322 335 322ZM335 396.021C315.112 396.027 298.984 379.909 298.978 360.021 298.972 340.133 315.09 324.005 334.978 323.999 354.866 323.993 370.994 340.111 371 359.999 371 360.004 371 360.008 371 360.013 370.98 379.889 354.876 395.998 335 396.024Z"/><path d="M335.5 342.514 333.5 342.514 333.5 359 317 359 317 361 333.5 361 333.5 377.514 335.5 377.514 335.5 361 352 361 352 359 335.5 359 335.5 342.514Z"/></g></g></g></g></svg>